<mxfile host="app.diagrams.net" modified="2022-07-20T14:33:57.724Z" agent="5.0 (Windows NT 10.0; Win64; x64) AppleWebKit/537.36 (KHTML, like Gecko) Chrome/103.0.5060.114 Safari/537.36" etag="7p2VwEAutf80kImUnERA" version="20.1.2" type="github">
  <diagram id="e14B0zVhnKclSYJwJWuQ" name="Pàgina-1">
    <mxGraphModel dx="1929" dy="586" grid="1" gridSize="10" guides="1" tooltips="1" connect="1" arrows="1" fold="1" page="1" pageScale="1" pageWidth="827" pageHeight="1169" math="0" shadow="0">
      <root>
        <mxCell id="0" />
        <mxCell id="1" parent="0" />
        <mxCell id="MY2yZ7T-iWRl8EQ1s907-56" value="Localidad" style="swimlane;childLayout=stackLayout;horizontal=1;startSize=30;horizontalStack=0;rounded=1;fontSize=14;fontStyle=0;strokeWidth=2;resizeParent=0;resizeLast=1;shadow=0;dashed=0;align=center;" vertex="1" parent="1">
          <mxGeometry x="-120" y="330" width="160" height="120" as="geometry" />
        </mxCell>
        <mxCell id="MY2yZ7T-iWRl8EQ1s907-57" value="- &lt;u&gt;codigoPostal&lt;/u&gt;&lt;br&gt;- nombre&lt;br&gt;- población" style="align=left;strokeColor=none;fillColor=none;spacingLeft=4;fontSize=12;verticalAlign=top;resizable=0;rotatable=0;part=1;html=1;" vertex="1" parent="MY2yZ7T-iWRl8EQ1s907-56">
          <mxGeometry y="30" width="160" height="90" as="geometry" />
        </mxCell>
        <mxCell id="MY2yZ7T-iWRl8EQ1s907-62" value="Provincia" style="swimlane;childLayout=stackLayout;horizontal=1;startSize=30;horizontalStack=0;rounded=1;fontSize=14;fontStyle=0;strokeWidth=2;resizeParent=0;resizeLast=1;shadow=0;dashed=0;align=center;html=1;" vertex="1" parent="1">
          <mxGeometry x="-410" y="319" width="160" height="120" as="geometry" />
        </mxCell>
        <mxCell id="MY2yZ7T-iWRl8EQ1s907-63" value="- &lt;u&gt;codigoPostal&lt;/u&gt;&lt;br&gt;- nombre&lt;br&gt;- superficie&lt;br&gt;- población" style="align=left;strokeColor=none;fillColor=none;spacingLeft=4;fontSize=12;verticalAlign=top;resizable=0;rotatable=0;part=1;html=1;" vertex="1" parent="MY2yZ7T-iWRl8EQ1s907-62">
          <mxGeometry y="30" width="160" height="90" as="geometry" />
        </mxCell>
        <mxCell id="MY2yZ7T-iWRl8EQ1s907-60" value="CCAA" style="swimlane;childLayout=stackLayout;horizontal=1;startSize=30;horizontalStack=0;rounded=1;fontSize=14;fontStyle=0;strokeWidth=2;resizeParent=0;resizeLast=1;shadow=0;dashed=0;align=center;" vertex="1" parent="1">
          <mxGeometry x="-730" y="320" width="160" height="120" as="geometry" />
        </mxCell>
        <mxCell id="MY2yZ7T-iWRl8EQ1s907-61" value="- &lt;u&gt;codigoCCAA&amp;nbsp;&lt;/u&gt;&lt;br&gt;- población&lt;br&gt;- nombre&lt;br&gt;- superficie" style="align=left;strokeColor=none;fillColor=none;spacingLeft=4;fontSize=12;verticalAlign=top;resizable=0;rotatable=0;part=1;fontStyle=0;html=1;" vertex="1" parent="MY2yZ7T-iWRl8EQ1s907-60">
          <mxGeometry y="30" width="160" height="90" as="geometry" />
        </mxCell>
        <mxCell id="MY2yZ7T-iWRl8EQ1s907-69" value="" style="endArrow=none;html=1;rounded=0;" edge="1" parent="1" source="MY2yZ7T-iWRl8EQ1s907-61" target="MY2yZ7T-iWRl8EQ1s907-63">
          <mxGeometry relative="1" as="geometry">
            <mxPoint y="310" as="sourcePoint" />
            <mxPoint x="-506.1049723756905" y="211.94751381215474" as="targetPoint" />
          </mxGeometry>
        </mxCell>
        <mxCell id="MY2yZ7T-iWRl8EQ1s907-74" value="" style="endArrow=none;html=1;rounded=0;" edge="1" parent="1" source="MY2yZ7T-iWRl8EQ1s907-57" target="MY2yZ7T-iWRl8EQ1s907-63">
          <mxGeometry relative="1" as="geometry">
            <mxPoint x="-112.28673514962043" y="211.1433675748101" as="sourcePoint" />
            <mxPoint x="-140" y="399.5454545454546" as="targetPoint" />
          </mxGeometry>
        </mxCell>
        <mxCell id="MY2yZ7T-iWRl8EQ1s907-76" value="es capital" style="shape=rhombus;perimeter=rhombusPerimeter;whiteSpace=wrap;html=1;align=center;" vertex="1" parent="1">
          <mxGeometry x="-250" y="520" width="120" height="60" as="geometry" />
        </mxCell>
        <mxCell id="MY2yZ7T-iWRl8EQ1s907-77" value="es capital" style="shape=rhombus;perimeter=rhombusPerimeter;whiteSpace=wrap;html=1;align=center;" vertex="1" parent="1">
          <mxGeometry x="-250" y="439" width="120" height="60" as="geometry" />
        </mxCell>
        <mxCell id="MY2yZ7T-iWRl8EQ1s907-78" value="" style="endArrow=none;html=1;rounded=0;" edge="1" parent="1" source="MY2yZ7T-iWRl8EQ1s907-61" target="MY2yZ7T-iWRl8EQ1s907-76">
          <mxGeometry relative="1" as="geometry">
            <mxPoint x="-604.8780487804877" y="360.0000000000002" as="sourcePoint" />
            <mxPoint x="-496.8421052631579" y="221.57894736842127" as="targetPoint" />
          </mxGeometry>
        </mxCell>
        <mxCell id="MY2yZ7T-iWRl8EQ1s907-79" value="" style="endArrow=none;html=1;rounded=0;" edge="1" parent="1" source="MY2yZ7T-iWRl8EQ1s907-63" target="MY2yZ7T-iWRl8EQ1s907-77">
          <mxGeometry relative="1" as="geometry">
            <mxPoint x="-560" y="369.2857142857142" as="sourcePoint" />
            <mxPoint x="-391.69811320754707" y="294.15094339622647" as="targetPoint" />
          </mxGeometry>
        </mxCell>
        <mxCell id="MY2yZ7T-iWRl8EQ1s907-80" value="" style="endArrow=none;html=1;rounded=0;" edge="1" parent="1" source="MY2yZ7T-iWRl8EQ1s907-77" target="MY2yZ7T-iWRl8EQ1s907-57">
          <mxGeometry relative="1" as="geometry">
            <mxPoint x="-40" y="366.53846153846166" as="sourcePoint" />
            <mxPoint x="-189.4117647058822" y="294.7058823529412" as="targetPoint" />
          </mxGeometry>
        </mxCell>
        <mxCell id="MY2yZ7T-iWRl8EQ1s907-81" value="" style="endArrow=none;html=1;rounded=0;" edge="1" parent="1" source="MY2yZ7T-iWRl8EQ1s907-76" target="MY2yZ7T-iWRl8EQ1s907-57">
          <mxGeometry relative="1" as="geometry">
            <mxPoint x="-226.3636363636365" y="253.18181818181847" as="sourcePoint" />
            <mxPoint x="-279.3220338983051" y="30" as="targetPoint" />
          </mxGeometry>
        </mxCell>
      </root>
    </mxGraphModel>
  </diagram>
</mxfile>
